<svg xmlns="http://www.w3.org/2000/svg" viewBox="0 0 585.59 260.15"><defs><style>.cls-1,.cls-38{fill:#edece1;}.cls-10,.cls-13,.cls-2,.cls-3,.cls-4,.cls-5,.cls-6,.cls-7,.cls-8,.cls-9{fill:none;}.cls-13,.cls-2,.cls-3,.cls-4,.cls-5{stroke:#edece1;}.cls-10,.cls-13,.cls-14,.cls-15,.cls-16,.cls-17,.cls-18,.cls-2,.cls-3,.cls-4,.cls-5,.cls-6,.cls-7,.cls-8,.cls-9{stroke-miterlimit:10;}.cls-2,.cls-3,.cls-4,.cls-5{stroke-width:0.75px;}.cls-3{stroke-dasharray:2.92 4.86;}.cls-4{stroke-dasharray:3.02 5.03;}.cls-5{stroke-dasharray:3 5.01;}.cls-15,.cls-6{stroke:#8dc63f;}.cls-10,.cls-14,.cls-15,.cls-16,.cls-17,.cls-18,.cls-6,.cls-7,.cls-8,.cls-9{stroke-width:2px;}.cls-7{stroke:#de8ea1;}.cls-8{stroke:#9bc9de;}.cls-18,.cls-9{stroke:#4a7494;}.cls-10,.cls-14{stroke:#ebb358;}.cls-11,.cls-46{font-size:9.67px;}.cls-11,.cls-12,.cls-19,.cls-25,.cls-39,.cls-40{fill:#231f20;}.cls-11,.cls-19,.cls-25,.cls-39,.cls-40{font-family:MyriadPro-Regular, Myriad Pro;}.cls-12{font-size:21.09px;font-family:SourceHanSansCN-Normal-GBpc-EUC-H, Source Han Sans CN;}.cls-14,.cls-15,.cls-16,.cls-17,.cls-18{fill:#fff;}.cls-16{stroke:#cf94a3;}.cls-17{stroke:#a9c9dc;}.cls-19{font-size:7.87px;}.cls-20{fill:#4a7494;}.cls-21{fill:#9bc9de;}.cls-22{fill:#de8ea1;}.cls-23{fill:#9cc456;}.cls-24{fill:#ebb358;}.cls-25{font-size:11.38px;}.cls-26{letter-spacing:-0.02em;}.cls-27{letter-spacing:-0.01em;}.cls-28{letter-spacing:-0.01em;}.cls-29{letter-spacing:0em;}.cls-30{letter-spacing:0em;}.cls-31{letter-spacing:-0.03em;}.cls-32{letter-spacing:0em;}.cls-33{letter-spacing:0em;}.cls-34{letter-spacing:-0.01em;}.cls-35{letter-spacing:0em;}.cls-36{letter-spacing:-0.02em;}.cls-37{letter-spacing:0em;}.cls-38{opacity:0.6;}.cls-39,.cls-51{font-size:9px;}.cls-40{font-size:8px;}.cls-41{letter-spacing:-0.03em;}.cls-42{letter-spacing:0em;}.cls-43{letter-spacing:-0.01em;}.cls-44{letter-spacing:-0.01em;}.cls-45{letter-spacing:0em;}.cls-47{letter-spacing:-0.02em;}.cls-48{letter-spacing:-0.01em;}.cls-49{letter-spacing:0em;}.cls-50{letter-spacing:-0.01em;}</style></defs><g id="Layer_2" data-name="Layer 2"><g id="Layer_1-2" data-name="Layer 1"><rect class="cls-1" x="47.92" y="176.93" width="537.24" height="35.48"/><line class="cls-1" x1="45.69" y1="212.83" x2="45.69" y2="72.73"/><line class="cls-2" x1="45.69" y1="212.83" x2="45.69" y2="211.33"/><line class="cls-3" x1="45.69" y1="206.47" x2="45.69" y2="76.66"/><line class="cls-2" x1="45.69" y1="74.23" x2="45.69" y2="72.73"/><line class="cls-1" x1="585.16" y1="212.83" x2="45.69" y2="212.83"/><line class="cls-2" x1="585.16" y1="212.83" x2="583.66" y2="212.83"/><line class="cls-4" x1="578.63" y1="212.83" x2="49.71" y2="212.83"/><line class="cls-2" x1="47.19" y1="212.83" x2="45.69" y2="212.83"/><line class="cls-1" x1="582.6" y1="178.18" x2="45.86" y2="178.18"/><line class="cls-2" x1="582.6" y1="178.18" x2="581.1" y2="178.18"/><line class="cls-5" x1="576.09" y1="178.18" x2="49.86" y2="178.18"/><line class="cls-2" x1="47.36" y1="178.18" x2="45.86" y2="178.18"/><line class="cls-1" x1="582.24" y1="143.17" x2="45.5" y2="143.17"/><line class="cls-2" x1="582.24" y1="143.17" x2="580.74" y2="143.17"/><line class="cls-5" x1="575.73" y1="143.17" x2="49.5" y2="143.17"/><line class="cls-2" x1="47" y1="143.17" x2="45.5" y2="143.17"/><line class="cls-1" x1="582.47" y1="108.43" x2="45.73" y2="108.43"/><line class="cls-2" x1="582.47" y1="108.43" x2="580.97" y2="108.43"/><line class="cls-5" x1="575.96" y1="108.43" x2="49.74" y2="108.43"/><line class="cls-2" x1="47.23" y1="108.43" x2="45.73" y2="108.43"/><line class="cls-1" x1="582.14" y1="73" x2="45.4" y2="73"/><line class="cls-2" x1="582.14" y1="73" x2="580.64" y2="73"/><line class="cls-5" x1="575.63" y1="73" x2="49.4" y2="73"/><line class="cls-2" x1="46.9" y1="73" x2="45.4" y2="73"/><path class="cls-6" d="M90.3,177.6c7.27-.29,14.31-.93,18.41-1,1.37,0,4.49-.07,17.49-.17l13.56-.08c20.45.07,26.69,1.43,39.67-.25,2.09-.27,4.06-.93,7.28-1.17,6.17-.46,8.29.71,15.65.5,4-.11,3.17-.46,7.53-.59,6-.17,7.42.48,13.06.17,4.48-.25,4.12-.69,7.2-.67,5.74,0,6.67,1.58,11.21,1.76,6.6.26,6.89-2.9,12.89-2.51,5.19.33,6.12,2.77,11.38,3.18,4.58.35,4.65-1.69,10.46-2.18,7-.59,7.59,2,12.64.59,2.77-.77,4.39-2,8.71-2.68a16.83,16.83,0,0,1,4.35-.17c2.77.31,3.81,1.24,5.77,1.68,2.18.48,4-.18,7.7-1.26s4-1.75,6.53-2.26c3-.59,4.65-.07,7.45.09a33.57,33.57,0,0,0,12.38-1.93c7.93-2.44,9.12-5.61,13.73-4.85,2.62.43,3.48,1.66,6.36,1.42,3.44-.28,4.16-2.19,6.53-1.84,3.39.51,3.5,2,6.37,2.22,2.55.19,3.61-.31,7.52-2.05,2-.91,4.43-.65,8.2-.59a11.76,11.76,0,0,0,4.94-.59,23.7,23.7,0,0,1,2.51-1.08A12.48,12.48,0,0,1,402,161c3.45-.1,4.22-.33,6.62.34,7.38,2.08,5.86,3.88,10,4.09,3.34.17,3.93-1.39,10.21-1.17,3.49.12,4,.79,5.52.17,3.49-1.42,3-5.68,6.28-7.62,2.77-1.63,4.67,1.41,7.87.08,3.61-1.49,8.78-3.56,13.05-1.92,1.28.49,4.66,1.79,7.12.33,2.2-1.3,1.35-3.44,3.85-6.94.43-.62,3.58-5,7.44-5,2.34,0,2.73,1.62,6.36,3.85.76.46,7.45,4.44,15.24,3.93,2.69-.18,3.9-.79,6.52-.25,2.36.48,3.33,1.36,6,2.17,3.1.94,4.66,1.35,6.28.93,3.51-.93,3.09-4.49,7.53-6.87a18,18,0,0,1,6.44-1.67c1.44-.2,5.52,3.63,7.8,4,6.86,1.21,5.56,4.79,12.62,6.93,2.22.67,4.67-4.7,9.5-5.32s5.83-2,8.36-3.47c4.12-2.38,9.6-4.46,12.52-5.83"/><path class="cls-7" d="M244.26,176.45c3.3.35,8,.48,9.82.48,8.4,0,10.87-1.48,17.75-.76,3.88.41,3.79,1,6.61.92,4.81,0,6.18-1.64,10.71-1.42,3.44.17,3.26,1.12,6.69,1.34,4.22.28,5.2-1.11,10.47-2,4.61-.79,4.46.17,13.47-.33,5.46-.31,5.22-.64,8.79-.67,7.3-.06,7.37,1.34,12.22,1,6.89-.49,8.07-3.43,14-2.76,3.15.36,2.73,1.18,6.95,1.92,4.45.79,8,.41,12.39-.08,7.09-.79,6-1.59,9.7-1.59,5.88,0,8.18,2,13.06.92,2.66-.58,2.19-1.29,5.36-2.26,5.85-1.78,7.71.31,12-1.09s3.24-3.61,9.12-6.86c2.83-1.56,6.84-.16,11,1.26,3.07,1,3.32-.65,6.53.75,1.66.72,3.18.8,11-.75,11.05-2.21,11.11-3,16.32-3.43a22.94,22.94,0,0,0,6.2-.93c3.43-1.14,4.27-2.6,6.86-2.67,1.87-.06,3.2.65,5.44,1.84,3.73,2,3.72,3.24,7.28,5.35,2.45,1.46,4.79,2.84,7.7,2.6,2.63-.22,2.73-1.52,6.53-2.43a21.52,21.52,0,0,1,6.86-.42c3.27.22,4.91.32,6.53,1.26,3.93,2.27,3,6.36,6.36,7.61,2.42.92,3.32-1.08,6.78-.33s3.35.35,6.26.69,5.32,1.19,7.21-.1c3.81-2.62,3-2.16,6.15-3.48,2.47-1,3.39-2.32,6.66-3.39s3.07-.49,6.17-1.45c.9-.28,4.19-2.11,7.57-1,4.19,1.35,7.33,2.1,7.88,3.11"/><path class="cls-8" d="M195.61,177.4c1.49.37,5.78,1,8.51,1.79,10.33,2.83,9.31,0,10.63-.51,0,0,10.67-1.22,21.17-1.75,3.1-.16,4.71-.24,7.12-.25,11.79-.07,12.76,1.69,18.16.67,7.1-1.35,6.6-4.62,13.05-4.94,4.39-.22,5.25,1.25,11.72,1,3.91-.15,4.47-.72,8.28-.58a31.36,31.36,0,0,1,8.88,1.42c3.29,1.05,3.32,1.71,5.94,2.34s3.13.13,8.2.09c6.27-.07,7.36.64,12.05.08,3.1-.37,2.46-.67,5-.92,4.59-.46,6.16.52,13.48,1.09,3.61.27,5.45.4,7.28-.09,3.45-.92,4.24-2.61,7.28-4.27,4.7-2.56,9.64-1.06,13.22-1.92,7.45-1.79,6.84-2.28,13.39,3.26,4.08,3.45,7.07-2.14,12.81-1.34,3.59.51,3.18,1.36,6.27,1.59,5.78.44,7.53-2.5,12.64-1.92,3.57.41,3.1,1.89,7,2.68,5.4,1.08,6.71-1.61,13.81-1.93,6.23-.28,7,1.72,12.72.76,4.61-.78,4.28-2.12,7.78-2.26,5-.21,5.88,2.5,13,3.26a20,20,0,0,0,7.53-.42c2.84-.78,3.17-2.33,5.86-2.84s3,.66,6.44.42c3.64-.27,3.85,5.51,6.56,5.77,3,.29,5.78-.23,8.23-.11,3.57.17,6.19.36,16.26.86,10.29.52,9.52-.83,12.39,2.14,1.65,1.72-.86,1.47,2.17,2.05,4.7.89,4.36,1.72,6.86,1.92,5.59.46,8.82-6.52,15.75-7.61,3.85-.61,3.76-.28,7.69.67,4.81,1.15,11.65,2.15,14.39,3"/><path class="cls-9" d="M132.79,177.4c2-.53,7.63-4.07,11.27-3.93,3.12.11,6.83,1.82,8.76,2.2,5.81,1.14,9.51,0,14.39-.5,9.19-.9,9.76,1.84,21.76,2.43,11.64.57,11.09-2,22.77-1.51,9.75.41,9.93,2.2,21.92,2.85,5.53.29,9.65.14,17.75-.17,8.37-.32,12.56-.48,17.82-1.42,5.43-1,6-1.62,10.21-1.93,2.58-.19,4.63-.11,13.64.67,9.35.81,8.87.9,11,1,2.52.13,11.85-1.13,17.07-1.42,3.57-.19,2.73.21,6.19,0,6.52-.39,7.24-1.67,12.05-2,5-.35,5.63.94,14,1.43,4.22.24,5.58-1,8.12.08,3.22,1.31,3.41,3.47,6.61,4.27,2.7.67,3.55-.63,6.78-.17A14.12,14.12,0,0,1,381,182c6.85,4.39,12.9-5,20.76-2a39.75,39.75,0,0,0,6.61,2.51,22.85,22.85,0,0,0,5.52.84c2.8.07,3.21-.5,7.45-1.09,4-.55,4.63-.19,8.87-.75,3.32-.44,3-.67,5.94-1.09,4.71-.66,8.25-1.16,11.8.09,4.24,1.48,3.62,3.74,6.87,4.51,4.64,1.11,7.32-3.17,14.06-5,3.7-1,8.79-2.27,13,.17,2,1.17,2.54,2.47,5.69,4.1,2.56,1.33,3.68,1.24,6.19,2.09,7.68,2.61,8,7.11,13.48,7.54,2.74.21,3-.87,6.69-.51,3.32.34,4.07,1.32,6.78,1.26s3.33-1.2,6.61-2,3.73,0,10.13.08c5.63.06,8.45.09,10.46-1,3.73-2,3.54-5,7-5.77,2.59-.59,3.16,1,6.52.58,3.55-.47,3.91-2.4,6.78-2.34,2.52,0,3.09,1.55,6,2.34,1.72.46,7.34-.7,11-2"/><path class="cls-10" d="M45.36,177.57h68.35c5.07,0,13.18,0,24.1-.17,19.79-.3,19.15-.73,31.3-.83,18.18-.16,36.71.62,50.39,0a135.94,135.94,0,0,0,16.06-1.68c2.38-.39,3.76-.89,6.2-1.17,5-.56,6.2.42,13.05.84a96.16,96.16,0,0,0,14.06-.34c3.36-.25,5.42-.4,8-.83,7.41-1.23,8.16-1.8,15.89-4.81,4.08-1.59-1.74,1.23,14.37-1.32,2.67-.42,4.63-1.08,8.4-.07a19.51,19.51,0,0,0,8.54.34,21.5,21.5,0,0,0,5.69-2c3-1.46,3.74-2.44,6-3.85,1.28-.79,6.76-4.17,13.22-3.85,3.73.18,4.6,1.44,7.53.67s3.3-2.23,5.86-2.51c2.93-.33,4,1.44,6.53,1.84,5.08.79,6.87-1.27,13-2.67,4.23-1,9.22-2.88,20.46,1.33a7.44,7.44,0,0,0,3.77.67c5-.6,8.46-2.67,12-3.15,4.44-.61,4,4.74,9.18,5.49,5.83.85,7-7.4,12.8-12.73,5.43-5,27.26-4.12,27.88-3.67,2.6,1.91,4.17,3.06,6.52,3.52a12.59,12.59,0,0,0,8.79-1.85c3-2,2.48-4,5.53-5.85,2.68-1.65,4.54-1.07,6.44-1.76,6.66-2.44,3.78-5.12,6.08-6.87,1.29-1,3-5,6.56-4.26,2.51.48,3.6-2.32,7.28-3.35,5.69-1.59,8.49,3.59,12.72,2.68,8-1.71,7.83-31.69,14.18-32.59,1.81-.26,8.9,3.22,10.71,2.4,4.72-2.11,1.63-.83,8.59-8.06.68-.71,3.75-3.9,7.44-3.6,2.63.22,3.52,2,5.78,2.1,1.78.05,4.36-1,7.61-6.2"/><text class="cls-11" transform="translate(0 75.5)">¥200,000</text><text class="cls-11" transform="translate(0.06 110.69)">¥150,000</text><text class="cls-11" transform="translate(0.05 145.31)">¥100,000</text><text class="cls-11" transform="translate(5.13 180.57)">¥50,000</text><text class="cls-11" transform="translate(26.75 215.16)">$0</text><text class="cls-12" transform="translate(42.56 18.56)">个人可选择支出</text><line class="cls-13" x1="487.41" y1="213.16" x2="487.41" y2="55.32"/><circle class="cls-14" cx="487.29" cy="139.95" r="1.86"/><circle class="cls-15" cx="487.44" cy="147.63" r="1.86"/><circle class="cls-16" cx="487.33" cy="159.52" r="1.86"/><circle class="cls-17" cx="487.42" cy="171.88" r="1.86"/><circle class="cls-18" cx="487.52" cy="184.31" r="1.86"/><text class="cls-19" transform="translate(48.26 233.56) rotate(-90)">2025</text><text class="cls-19" transform="translate(61.66 233.53) rotate(-90)">2027</text><text class="cls-19" transform="translate(74.75 233.81) rotate(-90)">2029</text><text class="cls-19" transform="translate(87.98 232.72) rotate(-90)">2031</text><text class="cls-19" transform="translate(101.22 233.45) rotate(-90)">2033</text><text class="cls-19" transform="translate(114.49 233.49) rotate(-90)">2035</text><text class="cls-19" transform="translate(127.71 233.48) rotate(-90)">2037 </text><text class="cls-19" transform="translate(141.05 233.69) rotate(-90)">2039</text><text class="cls-19" transform="translate(154.37 232.77) rotate(-90)">2041</text><text class="cls-19" transform="translate(167.45 233.3) rotate(-90)">2043</text><text class="cls-19" transform="translate(180.9 233.52) rotate(-90)">2045</text><text class="cls-19" transform="translate(194.1 233.61) rotate(-90)">2047</text><text class="cls-19" transform="translate(207.21 233.63) rotate(-90)">2049 </text><text class="cls-19" transform="translate(220.59 232.79) rotate(-90)">2051</text><text class="cls-19" transform="translate(233.86 233.37) rotate(-90)">2053</text><text class="cls-19" transform="translate(246.85 233.4) rotate(-90)">2055</text><text class="cls-19" transform="translate(273.58 233.59) rotate(-90)">2059</text><text class="cls-19" transform="translate(286.72 232.75) rotate(-90)">2061</text><text class="cls-19" transform="translate(300.17 233.34) rotate(-90)">2063</text><text class="cls-19" transform="translate(313.31 233.65) rotate(-90)">2065</text><text class="cls-19" transform="translate(326.38 233.31) rotate(-90)">2067</text><text class="cls-19" transform="translate(339.79 233.67) rotate(-90)">2069 </text><text class="cls-19" transform="translate(352.92 232.8) rotate(-90)">2071</text><text class="cls-19" transform="translate(366.13 233.37) rotate(-90)">2073</text><text class="cls-19" transform="translate(379.6 233.54) rotate(-90)">2075</text><text class="cls-19" transform="translate(392.75 233.52) rotate(-90)">2077</text><text class="cls-19" transform="translate(405.96 233.51) rotate(-90)">2079</text><text class="cls-19" transform="translate(419.42 232.73) rotate(-90)">2081</text><text class="cls-19" transform="translate(432.57 233.25) rotate(-90)">2083</text><text class="cls-19" transform="translate(445.66 233.52) rotate(-90)">2085</text><text class="cls-19" transform="translate(459.05 233.58) rotate(-90)">2087</text><text class="cls-19" transform="translate(472.22 233.56) rotate(-90)">2089</text><text class="cls-19" transform="translate(485.4 232.77) rotate(-90)">2091</text><text class="cls-19" transform="translate(498.84 233.37) rotate(-90)">2093</text><text class="cls-19" transform="translate(511.9 233.47) rotate(-90)">2095</text><text class="cls-19" transform="translate(525.22 233.47) rotate(-90)">2097</text><text class="cls-19" transform="translate(538.66 233.58) rotate(-90)">2099</text><text class="cls-19" transform="translate(551.71 232.82) rotate(-90)">2101</text><text class="cls-19" transform="translate(564.85 233.37) rotate(-90)">2103</text><text class="cls-19" transform="translate(578.28 233.52) rotate(-90)">2105</text><text class="cls-19" transform="translate(260.25 233.59) rotate(-90)">2057</text><rect class="cls-20" x="35.41" y="252.81" width="7.76" height="3.79"/><rect class="cls-21" x="129.37" y="252.75" width="7.76" height="3.79"/><rect class="cls-22" x="228.41" y="252.66" width="7.76" height="3.79"/><rect class="cls-23" x="328.36" y="252.84" width="7.76" height="3.79"/><rect class="cls-24" x="427.47" y="252.9" width="7.76" height="3.79"/><rect class="cls-1" x="526.69" y="252.81" width="7.76" height="3.79"/><text class="cls-25" transform="translate(47.74 257.21)">5th <tspan class="cls-26" x="18.33" y="0">P</tspan><tspan x="24.09" y="0">e</tspan><tspan class="cls-27" x="29.79" y="0">r</tspan><tspan class="cls-28" x="33.4" y="0">c</tspan><tspan x="38.43" y="0">e</tspan><tspan class="cls-29" x="44.13" y="0">n</tspan><tspan class="cls-30" x="50.4" y="0">tile</tspan></text><text class="cls-25" transform="translate(140.77 257.01)">25th <tspan class="cls-26" x="24.16" y="0">P</tspan><tspan x="29.93" y="0">e</tspan><tspan class="cls-27" x="35.63" y="0">r</tspan><tspan class="cls-28" x="39.24" y="0">c</tspan><tspan x="44.26" y="0">e</tspan><tspan class="cls-29" x="49.96" y="0">n</tspan><tspan class="cls-30" x="56.23" y="0">tile</tspan></text><text class="cls-25" transform="translate(240.51 257.03)">50th <tspan class="cls-31" x="24.16" y="0">P</tspan><tspan class="cls-32" x="29.93" y="0">e</tspan><tspan class="cls-27" x="35.63" y="0">r</tspan><tspan class="cls-28" x="39.24" y="0">c</tspan><tspan x="44.26" y="0">e</tspan><tspan class="cls-33" x="49.96" y="0">n</tspan><tspan x="56.23" y="0">tile</tspan></text><text class="cls-25" transform="translate(339.28 257.3)">75th <tspan class="cls-26" x="24.16" y="0">P</tspan><tspan x="29.93" y="0">e</tspan><tspan class="cls-34" x="35.63" y="0">r</tspan><tspan class="cls-28" x="39.24" y="0">c</tspan><tspan x="44.26" y="0">e</tspan><tspan class="cls-35" x="49.96" y="0">n</tspan><tspan x="56.23" y="0">tile</tspan></text><text class="cls-25" transform="translate(439.05 257.12)">95th <tspan class="cls-36" x="24.16" y="0">P</tspan><tspan x="29.93" y="0">e</tspan><tspan class="cls-34" x="35.63" y="0">r</tspan><tspan class="cls-28" x="39.24" y="0">c</tspan><tspan x="44.26" y="0">e</tspan><tspan class="cls-35" x="49.96" y="0">n</tspan><tspan x="56.23" y="0">tile</tspan></text><text class="cls-25" transform="translate(538.21 257.05)">Base <tspan class="cls-37" x="24.27" y="0">P</tspan><tspan x="30.26" y="0">lan</tspan></text><rect class="cls-38" x="380.56" y="55.32" width="104.19" height="74.5"/><text class="cls-39" transform="translate(462.56 52.07)">2092</text><text class="cls-40" transform="translate(404.68 66.71)">5th <tspan class="cls-41" x="12.89" y="0">P</tspan><tspan class="cls-42" x="16.94" y="0">e</tspan><tspan class="cls-43" x="20.95" y="0">r</tspan><tspan class="cls-44" x="23.49" y="0">c</tspan><tspan x="27.02" y="0">e</tspan><tspan class="cls-45" x="31.03" y="0">n</tspan><tspan x="35.44" y="0">tile: </tspan><tspan class="cls-46" x="49.21" y="0">¥</tspan><tspan x="54.17" y="0">39,793</tspan><tspan x="-4.1" y="11.6">25th </tspan><tspan class="cls-47" x="12.89" y="11.6">P</tspan><tspan x="16.94" y="11.6">e</tspan><tspan class="cls-48" x="20.95" y="11.6">r</tspan><tspan class="cls-44" x="23.49" y="11.6">c</tspan><tspan x="27.02" y="11.6">e</tspan><tspan class="cls-49" x="31.03" y="11.6">n</tspan><tspan x="35.44" y="11.6">tile: </tspan><tspan class="cls-46" x="49.21" y="11.6">¥</tspan><tspan class="cls-42" x="54.17" y="11.6">58,209</tspan><tspan x="-4.1" y="23.2">50th </tspan><tspan class="cls-47" x="12.89" y="23.2">P</tspan><tspan x="16.94" y="23.2">e</tspan><tspan class="cls-48" x="20.95" y="23.2">r</tspan><tspan class="cls-44" x="23.49" y="23.2">c</tspan><tspan x="27.02" y="23.2">e</tspan><tspan class="cls-49" x="31.03" y="23.2">n</tspan><tspan x="35.44" y="23.2">tile: </tspan><tspan class="cls-46" x="49.21" y="23.2">¥</tspan><tspan class="cls-42" x="54.17" y="23.2">71,693</tspan><tspan x="-4.1" y="34.8">75th </tspan><tspan class="cls-47" x="12.89" y="34.8">P</tspan><tspan x="16.94" y="34.8">e</tspan><tspan class="cls-48" x="20.95" y="34.8">r</tspan><tspan class="cls-44" x="23.49" y="34.8">c</tspan><tspan x="27.02" y="34.8">e</tspan><tspan class="cls-49" x="31.03" y="34.8">n</tspan><tspan x="35.44" y="34.8">tile: </tspan><tspan class="cls-46" x="49.21" y="34.8">¥</tspan><tspan class="cls-42" x="54.17" y="34.8">93,844</tspan><tspan x="-8.21" y="46.4">95th </tspan><tspan class="cls-47" x="8.78" y="46.4">P</tspan><tspan x="12.84" y="46.4">e</tspan><tspan class="cls-48" x="16.85" y="46.4">r</tspan><tspan class="cls-44" x="19.38" y="46.4">c</tspan><tspan x="22.92" y="46.4">e</tspan><tspan class="cls-49" x="26.93" y="46.4">n</tspan><tspan x="31.33" y="46.4">tile: </tspan><tspan class="cls-46" x="45.1" y="46.4">¥</tspan><tspan class="cls-42" x="50.06" y="46.4">106,286</tspan><tspan x="14.39" y="58">Base </tspan><tspan class="cls-50" x="31.46" y="58">P</tspan><tspan class="cls-42" x="35.67" y="58">lan: </tspan><tspan class="cls-46" x="49.21" y="58">¥</tspan><tspan x="54.17" y="58">49,303</tspan><tspan class="cls-51"><tspan x="74.43" y="68.8"> </tspan></tspan></text></g></g></svg>