<svg xmlns="http://www.w3.org/2000/svg" viewBox="0 0 561.64 320.14"><defs><style>.cls-1{fill:#edece1;}.cls-2,.cls-3,.cls-4,.cls-5{fill:none;}.cls-2,.cls-3,.cls-4,.cls-6{stroke:#edece1;}.cls-2,.cls-3,.cls-4,.cls-5,.cls-6{stroke-miterlimit:10;}.cls-2,.cls-3,.cls-4{stroke-width:0.75px;}.cls-3{stroke-dasharray:3.04 5.06;}.cls-4{stroke-dasharray:2.98 4.97;}.cls-5{stroke:#ebb358;}.cls-6{fill:#9bc9de;stroke-width:0.5px;}.cls-7{font-size:13px;fill:#231f20;font-family:MyriadPro-Regular, Myriad Pro;}.cls-8{letter-spacing:0.03em;}.cls-9{letter-spacing:-0.01em;}.cls-10{letter-spacing:-0.01em;}.cls-11{letter-spacing:0em;}.cls-12{letter-spacing:0em;}.cls-13{letter-spacing:0.01em;}.cls-14{letter-spacing:0em;}</style></defs><g id="Layer_2" data-name="Layer 2"><g id="Layer_2-2" data-name="Layer 2"><line class="cls-1" x1="71.86" x2="71.86" y2="283.43"/><line class="cls-2" x1="71.86" x2="71.86" y2="1.5"/><line class="cls-3" x1="71.86" y1="6.56" x2="71.86" y2="279.4"/><line class="cls-2" x1="71.86" y1="281.93" x2="71.86" y2="283.43"/><line class="cls-1" x1="67.8" y1="283.87" x2="552.62" y2="283.87"/><line class="cls-2" x1="67.8" y1="283.87" x2="69.3" y2="283.87"/><line class="cls-4" x1="74.26" y1="283.87" x2="548.64" y2="283.87"/><line class="cls-2" x1="551.12" y1="283.87" x2="552.62" y2="283.87"/><line class="cls-1" x1="67.07" y1="228.29" x2="551.89" y2="228.29"/><line class="cls-2" x1="67.07" y1="228.29" x2="68.57" y2="228.29"/><line class="cls-4" x1="73.53" y1="228.29" x2="547.91" y2="228.29"/><line class="cls-2" x1="550.39" y1="228.29" x2="551.89" y2="228.29"/><line class="cls-1" x1="66.73" y1="172.97" x2="551.56" y2="172.97"/><line class="cls-2" x1="66.73" y1="172.97" x2="68.23" y2="172.97"/><line class="cls-4" x1="73.2" y1="172.97" x2="547.57" y2="172.97"/><line class="cls-2" x1="550.06" y1="172.97" x2="551.56" y2="172.97"/><line class="cls-1" x1="66.91" y1="118.1" x2="551.73" y2="118.1"/><line class="cls-2" x1="66.91" y1="118.1" x2="68.41" y2="118.1"/><line class="cls-4" x1="73.37" y1="118.1" x2="547.75" y2="118.1"/><line class="cls-2" x1="550.23" y1="118.1" x2="551.73" y2="118.1"/><line class="cls-1" x1="66.75" y1="62.57" x2="551.57" y2="62.57"/><line class="cls-2" x1="66.75" y1="62.57" x2="68.25" y2="62.57"/><line class="cls-4" x1="73.22" y1="62.57" x2="547.59" y2="62.57"/><line class="cls-2" x1="550.07" y1="62.57" x2="551.57" y2="62.57"/><line class="cls-1" x1="66.76" y1="7.4" x2="551.59" y2="7.4"/><line class="cls-2" x1="66.76" y1="7.4" x2="68.26" y2="7.4"/><line class="cls-4" x1="73.23" y1="7.4" x2="547.61" y2="7.4"/><line class="cls-2" x1="550.09" y1="7.4" x2="551.59" y2="7.4"/><line class="cls-1" x1="195.92" y1="0.32" x2="195.92" y2="283.75"/><line class="cls-2" x1="195.92" y1="0.32" x2="195.92" y2="1.82"/><line class="cls-3" x1="195.92" y1="6.88" x2="195.92" y2="279.72"/><line class="cls-2" x1="195.92" y1="282.25" x2="195.92" y2="283.75"/><line class="cls-1" x1="311.99" y1="0.57" x2="311.99" y2="284"/><line class="cls-2" x1="311.99" y1="0.57" x2="311.99" y2="2.07"/><line class="cls-3" x1="311.99" y1="7.13" x2="311.99" y2="279.97"/><line class="cls-2" x1="311.99" y1="282.5" x2="311.99" y2="284"/><line class="cls-1" x1="429.07" y1="0.06" x2="429.07" y2="283.49"/><line class="cls-2" x1="429.07" y1="0.06" x2="429.07" y2="1.56"/><line class="cls-3" x1="429.07" y1="6.63" x2="429.07" y2="279.46"/><line class="cls-2" x1="429.07" y1="281.99" x2="429.07" y2="283.49"/><line class="cls-1" x1="545.13" y1="0.32" x2="545.13" y2="283.75"/><line class="cls-2" x1="545.13" y1="0.32" x2="545.13" y2="1.82"/><line class="cls-3" x1="545.13" y1="6.88" x2="545.13" y2="279.72"/><line class="cls-2" x1="545.13" y1="282.25" x2="545.13" y2="283.75"/><line class="cls-1" x1="79.67" y1="288.76" x2="79.67" y2="284"/><line class="cls-2" x1="79.67" y1="288.76" x2="79.67" y2="287.26"/><line class="cls-2" x1="79.67" y1="285.5" x2="79.67" y2="284"/><line class="cls-1" x1="195.91" y1="288.62" x2="195.91" y2="283.86"/><line class="cls-2" x1="195.91" y1="288.62" x2="195.91" y2="287.12"/><line class="cls-2" x1="195.91" y1="285.36" x2="195.91" y2="283.86"/><line class="cls-1" x1="312.1" y1="288.71" x2="312.1" y2="283.95"/><line class="cls-2" x1="312.1" y1="288.71" x2="312.1" y2="287.21"/><line class="cls-2" x1="312.1" y1="285.45" x2="312.1" y2="283.95"/><line class="cls-1" x1="545.24" y1="288.71" x2="545.24" y2="283.95"/><line class="cls-2" x1="545.24" y1="288.71" x2="545.24" y2="287.21"/><line class="cls-2" x1="545.24" y1="285.45" x2="545.24" y2="283.95"/></g><g id="Layer_6" data-name="Layer 6"><line class="cls-5" x1="66.81" y1="7.52" x2="71.57" y2="7.52"/><line class="cls-5" x1="66.72" y1="62.76" x2="71.48" y2="62.76"/><line class="cls-5" x1="66.91" y1="118.1" x2="71.67" y2="118.1"/><line class="cls-5" x1="66.95" y1="173.1" x2="71.72" y2="173.1"/><line class="cls-5" x1="66.95" y1="228.33" x2="71.72" y2="228.33"/><line class="cls-5" x1="67.05" y1="283.76" x2="71.81" y2="283.76"/></g><g id="Layer_3" data-name="Layer 3"><line class="cls-6" x1="429.03" y1="289.59" x2="429.03" y2="284.83"/><rect class="cls-6" x="155.71" y="281.46" width="8.95" height="2.54"/><rect class="cls-6" x="177.8" y="280.38" width="8.95" height="3.63"/><rect class="cls-6" x="188.6" y="282.07" width="8.95" height="1.94"/><rect class="cls-6" x="199.45" y="261.43" width="8.95" height="22.54"/><rect class="cls-6" x="211.01" y="246.88" width="8.95" height="37.05"/><rect class="cls-6" x="221.84" y="246.88" width="8.95" height="37.05"/><rect class="cls-6" x="232.63" y="239.69" width="8.95" height="44.31"/><rect class="cls-6" x="243.49" y="182.02" width="8.95" height="101.91"/><rect class="cls-6" x="254.76" y="125.32" width="8.95" height="158.74"/><rect class="cls-6" x="265.9" y="120.78" width="8.95" height="163.3"/><rect class="cls-6" x="276.88" y="170.24" width="8.95" height="113.81"/><rect class="cls-6" x="287.74" y="156.02" width="8.95" height="127.97"/><rect class="cls-6" x="298.6" y="34.31" width="8.95" height="249.68"/><rect class="cls-6" x="309.92" y="41.35" width="8.95" height="242.65"/><rect class="cls-6" x="320.74" y="130.69" width="8.95" height="153.32"/><rect class="cls-6" x="331.53" y="128.02" width="8.95" height="156.05"/><rect class="cls-6" x="342.39" y="92.78" width="8.95" height="191.23"/><rect class="cls-6" x="353.66" y="136.97" width="8.95" height="147.16"/><rect class="cls-6" x="364.8" y="132.59" width="8.95" height="151.57"/><rect class="cls-6" x="375.79" y="217.16" width="8.95" height="66.97"/><rect class="cls-6" x="386.65" y="233.35" width="8.95" height="50.71"/><rect class="cls-6" x="397.5" y="237.92" width="8.95" height="46.14"/><rect class="cls-6" x="408.66" y="246.5" width="8.95" height="37.78"/><rect class="cls-6" x="419.52" y="280.21" width="8.95" height="4"/><rect class="cls-6" x="430.38" y="280.21" width="8.95" height="4"/><rect class="cls-6" x="441.49" y="281.99" width="8.95" height="2.16"/><rect class="cls-6" x="452.34" y="281.99" width="8.95" height="2.1"/><rect class="cls-6" x="463.2" y="280.08" width="8.95" height="4"/></g><g id="Layer_5" data-name="Layer 5"><text class="cls-7" transform="translate(24.01 12.2)">2.5<tspan class="cls-8" x="16.03" y="0">e</tspan><tspan x="22.91" y="0">-04</tspan></text><text class="cls-7" transform="translate(23.84 67.82)">2.0<tspan class="cls-8" x="16.03" y="0">e</tspan><tspan x="22.91" y="0">-04</tspan></text><text class="cls-7" transform="translate(24.22 123.18)">1.5<tspan class="cls-8" x="16.03" y="0">e</tspan><tspan x="22.91" y="0">-04</tspan></text><text class="cls-7" transform="translate(23.98 178.39)">1.0<tspan class="cls-8" x="16.03" y="0">e</tspan><tspan x="22.91" y="0">-04</tspan></text><text class="cls-7" transform="translate(24.47 233.4)">5.0<tspan class="cls-8" x="16.03" y="0">e</tspan><tspan x="22.91" y="0">-05</tspan></text><text class="cls-7" transform="translate(58.25 288.64)">0</text><text class="cls-7" transform="translate(60.81 300.58)">-10000</text><text class="cls-7" transform="translate(180.26 300.78)">-5000</text><text class="cls-7" transform="translate(308.75 300.2)">0</text><text class="cls-7" transform="translate(415.25 300.1)">5000</text><text class="cls-7" transform="translate(528.3 300.1)">10000</text><text class="cls-7" transform="translate(283.92 316.89)">r(<tspan class="cls-9" x="7.94" y="0">t</tspan><tspan x="12.17" y="0">otal_</tspan><tspan class="cls-10" x="39.44" y="0">r</tspan><tspan class="cls-11" x="43.56" y="0">et)</tspan></text><text class="cls-7" transform="translate(10.88 163.03) rotate(-90)"><tspan class="cls-12">D</tspan><tspan x="8.71" y="0">ensi</tspan><tspan class="cls-13" x="30.63" y="0">t</tspan><tspan class="cls-14" x="35.05" y="0">y</tspan></text></g></g></svg>